<svg width="16" height="16" viewBox="0 0 16 16" fill="none" xmlns="http://www.w3.org/2000/svg">
<g clip-path="url(#clip0_116_100)">
<circle cx="8" cy="8" r="8" fill="url(#paint0_linear_116_100)"/>
<path d="M6.91 9.583V9.94C6.91 10.1327 6.91 10.3253 6.91 10.518C6.92133 10.6993 6.94967 10.8693 6.995 11.028C6.93833 11.5833 6.893 12.1387 6.859 12.694C6.83633 13.2493 6.825 13.8047 6.825 14.36L6.451 14.377C6.39433 14.377 6.349 14.3373 6.315 14.258C6.29233 14.19 6.26967 14.0993 6.247 13.986C6.23567 13.884 6.22433 13.7707 6.213 13.646C6.213 13.5213 6.213 13.408 6.213 13.306V12.966H6.043C6.043 13.034 6.026 13.1813 5.992 13.408C5.958 13.6347 5.91267 13.8727 5.856 14.122C5.81067 14.3713 5.74833 14.5923 5.669 14.785C5.58967 14.989 5.499 15.091 5.397 15.091C5.31767 15.091 5.24967 15.0117 5.193 14.853C5.13633 14.7057 5.091 14.5357 5.057 14.343C5.023 14.1503 4.99467 13.9633 4.972 13.782C4.94933 13.612 4.938 13.4987 4.938 13.442C4.836 12.4447 4.785 11.4473 4.785 10.45C4.785 9.44133 4.73967 8.43833 4.649 7.441C4.615 7.101 4.564 6.77233 4.496 6.455C4.428 6.12633 4.35433 5.79767 4.275 5.469C4.207 5.14033 4.14467 4.81167 4.088 4.483C4.04267 4.15433 4.02 3.80867 4.02 3.446C4.02 2.936 4.15033 2.53933 4.411 2.256C4.67167 1.96133 4.99467 1.74033 5.38 1.593C5.77667 1.44567 6.20167 1.355 6.655 1.321C7.10833 1.287 7.52767 1.27 7.913 1.27C8.695 1.27 9.46 1.32667 10.208 1.44C10.9673 1.55333 11.6417 1.77433 12.231 2.103C12.8203 2.43167 13.2907 2.89633 13.642 3.497C14.0047 4.08633 14.186 4.857 14.186 5.809C14.186 6.61367 14.0613 7.31633 13.812 7.917C13.574 8.51767 13.234 9.01633 12.792 9.413C12.35 9.80967 11.8117 10.11 11.177 10.314C10.5537 10.5067 9.85667 10.603 9.086 10.603C9.052 10.603 8.97833 10.603 8.865 10.603C8.75167 10.5917 8.63267 10.5803 8.508 10.569C8.38333 10.5463 8.27 10.518 8.168 10.484C8.07733 10.4387 8.032 10.382 8.032 10.314L8.083 10.195C8.27567 10.2063 8.46833 10.2177 8.661 10.229C8.85367 10.229 9.04633 10.229 9.239 10.229C9.579 10.229 9.91333 10.212 10.242 10.178C10.582 10.144 10.9107 10.076 11.228 9.974C11.5453 9.872 11.84 9.73033 12.112 9.549C12.3613 9.379 12.5937 9.16367 12.809 8.903C12.5823 9.16367 12.3387 9.379 12.078 9.549C11.7947 9.73033 11.4887 9.86633 11.16 9.957C10.8427 10.0477 10.5083 10.11 10.157 10.144C9.817 10.1667 9.47133 10.178 9.12 10.178C8.96133 10.178 8.797 10.178 8.627 10.178C8.457 10.1667 8.29267 10.1553 8.134 10.144L8.117 9.821C8.02633 9.83233 7.947 9.84367 7.879 9.855C7.811 9.855 7.74867 9.855 7.692 9.855C7.556 9.855 7.43133 9.838 7.318 9.804C7.20467 9.75867 7.06867 9.685 6.91 9.583ZM8.457 3.208C8.07167 3.208 7.66367 3.225 7.233 3.259C6.80233 3.28167 6.40567 3.35533 6.043 3.48L5.958 3.616C6.38867 3.49133 6.78533 3.41767 7.148 3.395C7.51067 3.37233 7.85633 3.361 8.185 3.361H8.253C8.74033 3.361 9.222 3.378 9.698 3.412C10.174 3.43467 10.599 3.531 10.973 3.701C11.347 3.85967 11.6473 4.11467 11.874 4.466C12.112 4.806 12.231 5.29333 12.231 5.928C12.231 6.12067 12.214 6.302 12.18 6.472C12.146 6.642 12.1007 6.812 12.044 6.982C12.0893 6.82333 12.1233 6.66467 12.146 6.506C12.18 6.336 12.197 6.166 12.197 5.996C12.197 5.56533 12.1233 5.17433 11.976 4.823C11.8287 4.47167 11.5907 4.15433 11.262 3.871L11.143 3.803C10.973 3.72367 10.7577 3.66133 10.497 3.616C10.2477 3.57067 9.98133 3.53667 9.698 3.514C9.41467 3.48 9.12567 3.463 8.831 3.463C8.54767 3.45167 8.28133 3.446 8.032 3.446H7.556C7.352 3.446 7.114 3.463 6.842 3.497C6.58133 3.531 6.35467 3.57633 6.162 3.633C6.162 3.91633 6.18467 4.19967 6.23 4.483C6.28667 4.755 6.34333 5.027 6.4 5.299L6.587 6.115C6.655 6.387 6.70033 6.659 6.723 6.931L6.876 9.056C6.95533 8.99933 7.04033 8.954 7.131 8.92C7.233 8.87467 7.36333 8.852 7.522 8.852H7.607C7.85633 8.93133 8.11133 8.97667 8.372 8.988C8.644 8.99933 8.91033 9.005 9.171 9.005C9.715 9.005 10.1967 8.954 10.616 8.852C11.0467 8.75 11.4093 8.58 11.704 8.342C11.9987 8.09267 12.2197 7.76967 12.367 7.373C12.5257 6.965 12.605 6.46633 12.605 5.877C12.605 5.61633 12.5597 5.333 12.469 5.027C12.3897 4.70967 12.265 4.415 12.095 4.143C11.925 3.871 11.7097 3.64433 11.449 3.463C11.1997 3.28167 10.9107 3.18533 10.582 3.174C10.8993 3.208 11.1827 3.31 11.432 3.48C11.6813 3.65 11.891 3.86533 12.061 4.126C12.231 4.38667 12.3557 4.67567 12.435 4.993C12.5257 5.299 12.571 5.59933 12.571 5.894C12.571 6.92533 12.3217 7.68467 11.823 8.172C11.3243 8.65933 10.5593 8.903 9.528 8.903C9.27867 8.903 9.02933 8.89167 8.78 8.869L8.032 8.801C8.406 8.71033 8.78567 8.65933 9.171 8.648C9.56767 8.62533 9.94167 8.58 10.293 8.512C10.6557 8.444 10.9787 8.31933 11.262 8.138C11.5567 7.94533 11.7947 7.628 11.976 7.186L12.129 7.237C12.265 6.863 12.333 6.472 12.333 6.064C12.333 5.44067 12.2253 4.942 12.01 4.568C11.806 4.194 11.5283 3.905 11.177 3.701C10.8257 3.497 10.412 3.36667 9.936 3.31C9.47133 3.242 8.97833 3.208 8.457 3.208ZM13.846 5.775C13.846 5.31033 13.7837 4.88533 13.659 4.5C13.5343 4.10333 13.3417 3.718 13.081 3.344C13.319 3.718 13.4947 4.12033 13.608 4.551C13.7327 4.97033 13.795 5.401 13.795 5.843C13.795 6.557 13.6533 7.24267 13.37 7.9C13.5173 7.58267 13.6307 7.24833 13.71 6.897C13.8007 6.523 13.846 6.149 13.846 5.775ZM10.99 1.933C11.1487 1.98967 11.3017 2.04067 11.449 2.086C11.6077 2.12 11.7663 2.171 11.925 2.239C11.6417 2.09167 11.33 1.98967 10.99 1.933ZM12.605 2.749C12.5597 2.65833 12.4577 2.562 12.299 2.46C12.1517 2.36933 12.0327 2.30133 11.942 2.256C12.0553 2.34667 12.163 2.42033 12.265 2.477C12.3783 2.545 12.4917 2.63567 12.605 2.749Z" fill="white"/>
</g>
<defs>
<linearGradient id="paint0_linear_116_100" x1="8.70285" y1="5.31663e-07" x2="-0.92947" y2="18.5237" gradientUnits="userSpaceOnUse">
<stop stop-color="#11CF07"/>
<stop offset="1" stop-color="#096904"/>
</linearGradient>
<clipPath id="clip0_116_100">
<rect width="16" height="16" fill="white"/>
</clipPath>
</defs>
</svg>
